<svg xmlns="http://www.w3.org/2000/svg" xmlns:xlink="http://www.w3.org/1999/xlink" width="500" zoomAndPan="magnify" viewBox="0 0 375 149.999998" height="200" preserveAspectRatio="xMidYMid meet" version="1.0"><defs><g/><clipPath id="7f2de5aad6"><path d="M 0 50 L 33 50 L 33 84 L 0 84 Z M 0 50 " clip-rule="nonzero"/></clipPath><clipPath id="209790ae28"><path d="M 0.00390625 66.894531 L 16.199219 50.699219 L 32.394531 66.894531 L 16.199219 83.089844 Z M 0.00390625 66.894531 " clip-rule="nonzero"/></clipPath><clipPath id="604e9851d1"><path d="M 16 66 L 49 66 L 49 100 L 16 100 Z M 16 66 " clip-rule="nonzero"/></clipPath><clipPath id="b20e97e44a"><path d="M 16.199219 83.089844 L 32.394531 66.894531 L 48.589844 83.089844 L 32.394531 99.285156 Z M 16.199219 83.089844 " clip-rule="nonzero"/></clipPath><clipPath id="f0a9ee2273"><path d="M 48 66 L 81 66 L 81 100 L 48 100 Z M 48 66 " clip-rule="nonzero"/></clipPath><clipPath id="19dc0344ca"><path d="M 48.589844 83.089844 L 64.78125 66.894531 L 80.976562 83.089844 L 64.78125 99.285156 Z M 48.589844 83.089844 " clip-rule="nonzero"/></clipPath><clipPath id="f647f8eb63"><path d="M 32.390625 83.097656 L 64.78125 83.097656 L 64.78125 99.292969 L 32.390625 99.292969 Z M 32.390625 83.097656 " clip-rule="nonzero"/></clipPath><clipPath id="9946182874"><path d="M 48.585938 83.097656 L 64.78125 99.292969 L 32.390625 99.292969 Z M 48.585938 83.097656 " clip-rule="nonzero"/></clipPath><clipPath id="420680e13e"><path d="M 32 50 L 65 50 L 65 84 L 32 84 Z M 32 50 " clip-rule="nonzero"/></clipPath><clipPath id="11fd5c4351"><path d="M 32.394531 66.894531 L 48.589844 50.699219 L 64.78125 66.894531 L 48.589844 83.089844 Z M 32.394531 66.894531 " clip-rule="nonzero"/></clipPath><clipPath id="afeff2649e"><path d="M 64 50 L 98 50 L 98 84 L 64 84 Z M 64 50 " clip-rule="nonzero"/></clipPath><clipPath id="689be07712"><path d="M 64.78125 66.894531 L 80.976562 50.699219 L 97.171875 66.894531 L 80.976562 83.089844 Z M 64.78125 66.894531 " clip-rule="nonzero"/></clipPath></defs><g clip-path="url(#7f2de5aad6)"><g clip-path="url(#209790ae28)"><path fill="#050a30" d="M 0.00390625 66.894531 L 16.199219 50.699219 L 32.394531 66.894531 L 16.199219 83.089844 Z M 0.00390625 66.894531 " fill-opacity="1" fill-rule="nonzero"/></g></g><g clip-path="url(#604e9851d1)"><g clip-path="url(#b20e97e44a)"><path fill="#914bc4" d="M 16.199219 83.089844 L 32.394531 66.894531 L 48.589844 83.089844 L 32.394531 99.285156 Z M 16.199219 83.089844 " fill-opacity="1" fill-rule="nonzero"/></g></g><g clip-path="url(#f0a9ee2273)"><g clip-path="url(#19dc0344ca)"><path fill="#11a5d6" d="M 48.589844 83.089844 L 64.78125 66.894531 L 80.976562 83.089844 L 64.78125 99.285156 Z M 48.589844 83.089844 " fill-opacity="1" fill-rule="nonzero"/></g></g><g clip-path="url(#f647f8eb63)"><g clip-path="url(#9946182874)"><path fill="#0e8cb6" d="M 32.390625 83.097656 L 64.78125 83.097656 L 64.78125 99.292969 L 32.390625 99.292969 Z M 32.390625 83.097656 " fill-opacity="1" fill-rule="nonzero"/></g></g><g clip-path="url(#420680e13e)"><g clip-path="url(#11fd5c4351)"><path fill="#6a0dad" d="M 32.394531 66.894531 L 48.589844 50.699219 L 64.78125 66.894531 L 48.589844 83.089844 Z M 32.394531 66.894531 " fill-opacity="1" fill-rule="nonzero"/></g></g><g clip-path="url(#afeff2649e)"><g clip-path="url(#689be07712)"><path fill="#00bfff" d="M 64.78125 66.894531 L 80.976562 50.699219 L 97.171875 66.894531 L 80.976562 83.089844 Z M 64.78125 66.894531 " fill-opacity="1" fill-rule="nonzero"/></g></g><g fill="#f0ebe8" fill-opacity="1"><g transform="translate(103.425457, 85.903728)"><g><path d="M 12.078125 0.765625 C 10.515625 0.765625 9.078125 0.441406 7.765625 -0.203125 C 6.453125 -0.847656 5.3125 -1.738281 4.34375 -2.875 C 3.382812 -4.019531 2.640625 -5.34375 2.109375 -6.84375 C 1.585938 -8.351562 1.328125 -9.960938 1.328125 -11.671875 C 1.328125 -13.367188 1.59375 -14.96875 2.125 -16.46875 C 2.664062 -17.976562 3.414062 -19.300781 4.375 -20.4375 C 5.332031 -21.582031 6.460938 -22.476562 7.765625 -23.125 C 9.078125 -23.769531 10.5 -24.09375 12.03125 -24.09375 C 13.757812 -24.09375 15.289062 -23.769531 16.625 -23.125 C 17.957031 -22.476562 18.976562 -21.554688 19.6875 -20.359375 L 19.6875 -23.359375 L 26.265625 -23.359375 L 26.265625 0 L 19.65625 0 L 19.65625 -2.953125 C 18.945312 -1.765625 17.929688 -0.847656 16.609375 -0.203125 C 15.285156 0.441406 13.773438 0.765625 12.078125 0.765625 Z M 13.78125 -5.640625 C 14.84375 -5.640625 15.796875 -5.90625 16.640625 -6.4375 C 17.484375 -6.96875 18.148438 -7.6875 18.640625 -8.59375 C 19.140625 -9.507812 19.390625 -10.535156 19.390625 -11.671875 C 19.390625 -12.804688 19.140625 -13.828125 18.640625 -14.734375 C 18.148438 -15.640625 17.476562 -16.363281 16.625 -16.90625 C 15.78125 -17.445312 14.835938 -17.71875 13.796875 -17.71875 C 12.773438 -17.71875 11.835938 -17.476562 10.984375 -17 C 10.140625 -16.519531 9.460938 -15.828125 8.953125 -14.921875 C 8.453125 -14.023438 8.203125 -12.941406 8.203125 -11.671875 C 8.203125 -10.347656 8.460938 -9.238281 8.984375 -8.34375 C 9.503906 -7.457031 10.1875 -6.785156 11.03125 -6.328125 C 11.882812 -5.867188 12.800781 -5.640625 13.78125 -5.640625 Z M 13.78125 -5.640625 "/></g></g></g><g fill="#f0ebe8" fill-opacity="1"><g transform="translate(130.425299, 85.903728)"><g><path d="M 18.015625 0 L 12.84375 0 C 12.15625 0 11.4375 -0.0546875 10.6875 -0.171875 C 9.945312 -0.296875 9.222656 -0.53125 8.515625 -0.875 C 7.816406 -1.21875 7.179688 -1.722656 6.609375 -2.390625 C 6.046875 -3.066406 5.59375 -3.945312 5.25 -5.03125 C 4.914062 -6.125 4.75 -7.484375 4.75 -9.109375 L 4.75 -17.453125 L 0.265625 -17.453125 L 0.265625 -23.359375 L 4.75 -23.359375 L 4.75 -30.09375 L 11.703125 -30.140625 L 11.703125 -23.359375 L 18.015625 -23.359375 L 18.015625 -17.453125 L 11.703125 -17.453125 L 11.703125 -8.796875 C 11.703125 -7.648438 11.957031 -6.847656 12.46875 -6.390625 C 12.976562 -5.941406 13.601562 -5.71875 14.34375 -5.71875 L 18.015625 -5.71875 Z M 18.015625 0 "/></g></g></g><g fill="#f0ebe8" fill-opacity="1"><g transform="translate(147.666086, 85.903728)"><g><path d="M 9.65625 0 L 2.6875 0 L 2.6875 -23.359375 L 9.328125 -23.359375 L 9.328125 -20.0625 C 9.859375 -21.039062 10.570312 -21.832031 11.46875 -22.4375 C 12.363281 -23.050781 13.492188 -23.359375 14.859375 -23.359375 L 17.5625 -23.359375 L 17.5625 -17.453125 L 15.234375 -17.453125 C 13.492188 -17.453125 12.128906 -16.875 11.140625 -15.71875 C 10.148438 -14.570312 9.65625 -12.914062 9.65625 -10.75 Z M 9.65625 0 "/></g></g></g><g fill="#f0ebe8" fill-opacity="1"><g transform="translate(163.870111, 85.903728)"><g><path d="M 6.125 -26.109375 C 5.269531 -26.109375 4.535156 -26.273438 3.921875 -26.609375 C 3.316406 -26.953125 2.851562 -27.40625 2.53125 -27.96875 C 2.207031 -28.53125 2.046875 -29.15625 2.046875 -29.84375 C 2.046875 -30.539062 2.203125 -31.171875 2.515625 -31.734375 C 2.835938 -32.296875 3.304688 -32.75 3.921875 -33.09375 C 4.535156 -33.4375 5.28125 -33.609375 6.15625 -33.609375 C 7.050781 -33.609375 7.804688 -33.4375 8.421875 -33.09375 C 9.046875 -32.75 9.515625 -32.296875 9.828125 -31.734375 C 10.140625 -31.171875 10.296875 -30.539062 10.296875 -29.84375 C 10.296875 -28.789062 9.9375 -27.90625 9.21875 -27.1875 C 8.507812 -26.46875 7.476562 -26.109375 6.125 -26.109375 Z M 9.625 0 L 2.6875 0 L 2.6875 -23.359375 L 9.625 -23.359375 Z M 9.625 0 "/></g></g></g><g fill="#f0ebe8" fill-opacity="1"><g transform="translate(174.259268, 85.903728)"><g><path d="M 9.625 0 L 2.6875 0 L 2.6875 -23.359375 L 9.3125 -23.359375 L 9.3125 -20.53125 C 9.757812 -21.238281 10.351562 -21.859375 11.09375 -22.390625 C 11.832031 -22.929688 12.671875 -23.347656 13.609375 -23.640625 C 14.554688 -23.941406 15.566406 -24.09375 16.640625 -24.09375 C 18.753906 -24.09375 20.503906 -23.628906 21.890625 -22.703125 C 23.273438 -21.785156 24.300781 -20.460938 24.96875 -18.734375 C 25.632812 -17.003906 25.96875 -14.9375 25.96875 -12.53125 L 25.96875 0 L 19.03125 0 L 19.03125 -12.375 C 19.03125 -13.664062 18.84375 -14.707031 18.46875 -15.5 C 18.101562 -16.289062 17.597656 -16.863281 16.953125 -17.21875 C 16.304688 -17.570312 15.546875 -17.75 14.671875 -17.75 C 13.804688 -17.75 12.984375 -17.523438 12.203125 -17.078125 C 11.429688 -16.628906 10.804688 -15.953125 10.328125 -15.046875 C 9.859375 -14.140625 9.625 -12.988281 9.625 -11.59375 Z M 9.625 0 "/></g></g></g><g fill="#f0ebe8" fill-opacity="1"><g transform="translate(200.898496, 85.903728)"><g><path d="M 14.0625 0 L 7.875 0 L 0.15625 -23.359375 L 7.59375 -23.359375 L 11.296875 -10.484375 L 11.65625 -9.0625 L 11.75 -9.0625 L 12.171875 -10.484375 L 15.765625 -23.359375 L 20.8125 -23.359375 L 24.265625 -10.53125 L 24.671875 -9.0625 L 24.75 -9.0625 L 25.25 -10.59375 L 29 -23.359375 L 36.28125 -23.359375 L 28.5625 0 L 22.203125 0 L 18.1875 -12.921875 L 18.15625 -12.921875 Z M 14.0625 0 "/></g></g></g><g fill="#f0ebe8" fill-opacity="1"><g transform="translate(235.381039, 85.903728)"><g><path d="M 25.640625 -11.859375 C 25.640625 -11.484375 25.625 -11.160156 25.59375 -10.890625 C 25.570312 -10.617188 25.539062 -10.300781 25.5 -9.9375 L 8.28125 -9.9375 C 8.5625 -8.394531 9.171875 -7.222656 10.109375 -6.421875 C 11.046875 -5.628906 12.1875 -5.234375 13.53125 -5.234375 C 14.75 -5.234375 15.679688 -5.460938 16.328125 -5.921875 C 16.984375 -6.378906 17.441406 -6.945312 17.703125 -7.625 L 25.140625 -7.625 C 24.878906 -6.582031 24.429688 -5.566406 23.796875 -4.578125 C 23.160156 -3.585938 22.347656 -2.6875 21.359375 -1.875 C 20.378906 -1.070312 19.238281 -0.4375 17.9375 0.03125 C 16.644531 0.507812 15.21875 0.75 13.65625 0.75 C 11.84375 0.75 10.179688 0.425781 8.671875 -0.21875 C 7.160156 -0.863281 5.851562 -1.757812 4.75 -2.90625 C 3.65625 -4.050781 2.8125 -5.375 2.21875 -6.875 C 1.625 -8.375 1.328125 -9.972656 1.328125 -11.671875 C 1.328125 -13.367188 1.625 -14.96875 2.21875 -16.46875 C 2.8125 -17.976562 3.65625 -19.300781 4.75 -20.4375 C 5.851562 -21.582031 7.160156 -22.476562 8.671875 -23.125 C 10.179688 -23.769531 11.84375 -24.09375 13.65625 -24.09375 C 15.488281 -24.09375 17.140625 -23.769531 18.609375 -23.125 C 20.078125 -22.476562 21.335938 -21.59375 22.390625 -20.46875 C 23.441406 -19.34375 24.242188 -18.039062 24.796875 -16.5625 C 25.359375 -15.09375 25.640625 -13.523438 25.640625 -11.859375 Z M 8.546875 -14.625 L 18.53125 -14.625 C 18.457031 -15.351562 18.191406 -16 17.734375 -16.5625 C 17.285156 -17.132812 16.707031 -17.582031 16 -17.90625 C 15.300781 -18.226562 14.53125 -18.390625 13.6875 -18.390625 C 12.976562 -18.390625 12.28125 -18.265625 11.59375 -18.015625 C 10.914062 -17.773438 10.304688 -17.375 9.765625 -16.8125 C 9.234375 -16.257812 8.828125 -15.53125 8.546875 -14.625 Z M 8.546875 -14.625 "/></g></g></g><g fill="#f0ebe8" fill-opacity="1"><g transform="translate(260.149603, 85.903728)"><g><path d="M 16.484375 0.765625 C 14.972656 0.765625 13.585938 0.425781 12.328125 -0.25 C 11.066406 -0.925781 10.0625 -1.828125 9.3125 -2.953125 L 9.3125 0 L 2.6875 0 L 2.6875 -31.765625 L 9.625 -31.765625 L 9.625 -23.515625 L 9.46875 -20.5625 C 10.238281 -21.707031 11.242188 -22.578125 12.484375 -23.171875 C 13.722656 -23.773438 15.019531 -24.078125 16.375 -24.078125 C 18.039062 -24.078125 19.5625 -23.753906 20.9375 -23.109375 C 22.320312 -22.460938 23.507812 -21.566406 24.5 -20.421875 C 25.5 -19.285156 26.269531 -17.96875 26.8125 -16.46875 C 27.351562 -14.96875 27.625 -13.367188 27.625 -11.671875 C 27.625 -9.960938 27.351562 -8.351562 26.8125 -6.84375 C 26.269531 -5.34375 25.5 -4.019531 24.5 -2.875 C 23.5 -1.738281 22.316406 -0.847656 20.953125 -0.203125 C 19.597656 0.441406 18.109375 0.765625 16.484375 0.765625 Z M 15.171875 -5.609375 C 16.160156 -5.609375 17.078125 -5.84375 17.921875 -6.3125 C 18.773438 -6.78125 19.460938 -7.460938 19.984375 -8.359375 C 20.503906 -9.265625 20.765625 -10.367188 20.765625 -11.671875 C 20.765625 -12.941406 20.507812 -14.023438 20 -14.921875 C 19.488281 -15.828125 18.804688 -16.519531 17.953125 -17 C 17.109375 -17.476562 16.164062 -17.71875 15.125 -17.71875 C 14.101562 -17.71875 13.164062 -17.453125 12.3125 -16.921875 C 11.46875 -16.390625 10.796875 -15.664062 10.296875 -14.75 C 9.804688 -13.832031 9.5625 -12.804688 9.5625 -11.671875 C 9.5625 -10.472656 9.816406 -9.414062 10.328125 -8.5 C 10.847656 -7.59375 11.535156 -6.882812 12.390625 -6.375 C 13.253906 -5.863281 14.179688 -5.609375 15.171875 -5.609375 Z M 15.171875 -5.609375 "/></g></g></g><g fill="#f0ebe8" fill-opacity="1"><g transform="translate(287.870672, 85.903728)"><g><path d="M 12.46875 0.765625 C 10.800781 0.765625 9.28125 0.441406 7.90625 -0.203125 C 6.539062 -0.847656 5.367188 -1.738281 4.390625 -2.875 C 3.421875 -4.019531 2.664062 -5.34375 2.125 -6.84375 C 1.59375 -8.351562 1.328125 -9.960938 1.328125 -11.671875 C 1.328125 -13.367188 1.585938 -14.96875 2.109375 -16.46875 C 2.628906 -17.976562 3.375 -19.300781 4.34375 -20.4375 C 5.320312 -21.582031 6.503906 -22.476562 7.890625 -23.125 C 9.273438 -23.769531 10.820312 -24.09375 12.53125 -24.09375 C 13.644531 -24.09375 14.648438 -23.910156 15.546875 -23.546875 C 16.453125 -23.191406 17.234375 -22.742188 17.890625 -22.203125 C 18.554688 -21.660156 19.078125 -21.113281 19.453125 -20.5625 L 19.328125 -23.125 L 19.328125 -31.765625 L 26.21875 -31.765625 L 26.21875 0 L 19.640625 0 L 19.640625 -2.953125 C 19.210938 -2.347656 18.664062 -1.757812 18 -1.1875 C 17.34375 -0.625 16.554688 -0.160156 15.640625 0.203125 C 14.722656 0.578125 13.664062 0.765625 12.46875 0.765625 Z M 13.75 -5.609375 C 14.800781 -5.609375 15.75 -5.875 16.59375 -6.40625 C 17.445312 -6.945312 18.117188 -7.675781 18.609375 -8.59375 C 19.109375 -9.507812 19.359375 -10.535156 19.359375 -11.671875 C 19.359375 -12.804688 19.109375 -13.832031 18.609375 -14.75 C 18.117188 -15.664062 17.453125 -16.390625 16.609375 -16.921875 C 15.773438 -17.453125 14.820312 -17.71875 13.75 -17.71875 C 12.6875 -17.71875 11.734375 -17.460938 10.890625 -16.953125 C 10.046875 -16.441406 9.378906 -15.734375 8.890625 -14.828125 C 8.398438 -13.929688 8.15625 -12.878906 8.15625 -11.671875 C 8.15625 -10.535156 8.382812 -9.507812 8.84375 -8.59375 C 9.300781 -7.675781 9.953125 -6.945312 10.796875 -6.40625 C 11.640625 -5.875 12.625 -5.609375 13.75 -5.609375 Z M 13.75 -5.609375 "/></g></g></g><g fill="#f0ebe8" fill-opacity="1"><g transform="translate(314.847973, 85.903728)"><g><path d="M 25.640625 -11.859375 C 25.640625 -11.484375 25.625 -11.160156 25.59375 -10.890625 C 25.570312 -10.617188 25.539062 -10.300781 25.5 -9.9375 L 8.28125 -9.9375 C 8.5625 -8.394531 9.171875 -7.222656 10.109375 -6.421875 C 11.046875 -5.628906 12.1875 -5.234375 13.53125 -5.234375 C 14.75 -5.234375 15.679688 -5.460938 16.328125 -5.921875 C 16.984375 -6.378906 17.441406 -6.945312 17.703125 -7.625 L 25.140625 -7.625 C 24.878906 -6.582031 24.429688 -5.566406 23.796875 -4.578125 C 23.160156 -3.585938 22.347656 -2.6875 21.359375 -1.875 C 20.378906 -1.070312 19.238281 -0.4375 17.9375 0.03125 C 16.644531 0.507812 15.21875 0.75 13.65625 0.75 C 11.84375 0.75 10.179688 0.425781 8.671875 -0.21875 C 7.160156 -0.863281 5.851562 -1.757812 4.75 -2.90625 C 3.65625 -4.050781 2.8125 -5.375 2.21875 -6.875 C 1.625 -8.375 1.328125 -9.972656 1.328125 -11.671875 C 1.328125 -13.367188 1.625 -14.96875 2.21875 -16.46875 C 2.8125 -17.976562 3.65625 -19.300781 4.75 -20.4375 C 5.851562 -21.582031 7.160156 -22.476562 8.671875 -23.125 C 10.179688 -23.769531 11.84375 -24.09375 13.65625 -24.09375 C 15.488281 -24.09375 17.140625 -23.769531 18.609375 -23.125 C 20.078125 -22.476562 21.335938 -21.59375 22.390625 -20.46875 C 23.441406 -19.34375 24.242188 -18.039062 24.796875 -16.5625 C 25.359375 -15.09375 25.640625 -13.523438 25.640625 -11.859375 Z M 8.546875 -14.625 L 18.53125 -14.625 C 18.457031 -15.351562 18.191406 -16 17.734375 -16.5625 C 17.285156 -17.132812 16.707031 -17.582031 16 -17.90625 C 15.300781 -18.226562 14.53125 -18.390625 13.6875 -18.390625 C 12.976562 -18.390625 12.28125 -18.265625 11.59375 -18.015625 C 10.914062 -17.773438 10.304688 -17.375 9.765625 -16.8125 C 9.234375 -16.257812 8.828125 -15.53125 8.546875 -14.625 Z M 8.546875 -14.625 "/></g></g></g><g fill="#f0ebe8" fill-opacity="1"><g transform="translate(339.616537, 85.903728)"><g><path d="M 15.71875 0 L 9.328125 0 L 0.15625 -23.359375 L 7.5 -23.359375 L 11.875 -11.4375 L 12.53125 -8.6875 L 13.140625 -11.4375 L 17.515625 -23.359375 L 24.90625 -23.359375 Z M 15.71875 0 "/></g></g></g></svg>