<svg xmlns="http://www.w3.org/2000/svg" xmlns:xlink="http://www.w3.org/1999/xlink" width="500" zoomAndPan="magnify" viewBox="0 0 375 149.999998" height="200" preserveAspectRatio="xMidYMid meet" version="1.0"><defs><clipPath id="fae959e8ec"><path d="M 37 0 L 138 0 L 138 100 L 37 100 Z M 37 0 " clip-rule="nonzero"/></clipPath><clipPath id="a93d0d4068"><path d="M 37.316406 49.980469 L 87.316406 -0.0195312 L 137.316406 49.980469 L 87.316406 99.980469 Z M 37.316406 49.980469 " clip-rule="nonzero"/></clipPath><clipPath id="138ca7f3af"><path d="M 87 49 L 188 49 L 188 150 L 87 150 Z M 87 49 " clip-rule="nonzero"/></clipPath><clipPath id="996ef6f5b0"><path d="M 87.316406 99.980469 L 137.316406 49.980469 L 187.316406 99.980469 L 137.316406 149.980469 Z M 87.316406 99.980469 " clip-rule="nonzero"/></clipPath><clipPath id="0e5beb84cd"><path d="M 187 49 L 288 49 L 288 150 L 187 150 Z M 187 49 " clip-rule="nonzero"/></clipPath><clipPath id="a281129d22"><path d="M 187.316406 99.980469 L 237.316406 49.980469 L 287.316406 99.980469 L 237.316406 149.980469 Z M 187.316406 99.980469 " clip-rule="nonzero"/></clipPath><clipPath id="382688e29e"><path d="M 137.308594 100 L 237.308594 100 L 237.308594 150 L 137.308594 150 Z M 137.308594 100 " clip-rule="nonzero"/></clipPath><clipPath id="4208076823"><path d="M 187.308594 100 L 237.308594 150 L 137.308594 150 Z M 187.308594 100 " clip-rule="nonzero"/></clipPath><clipPath id="62e37fac2f"><path d="M 137 0 L 238 0 L 238 100 L 137 100 Z M 137 0 " clip-rule="nonzero"/></clipPath><clipPath id="18e571e920"><path d="M 137.316406 49.980469 L 187.316406 -0.0195312 L 237.316406 49.980469 L 187.316406 99.980469 Z M 137.316406 49.980469 " clip-rule="nonzero"/></clipPath><clipPath id="c2c93b5f54"><path d="M 237 0 L 338 0 L 338 100 L 237 100 Z M 237 0 " clip-rule="nonzero"/></clipPath><clipPath id="8fbabc31e5"><path d="M 237.316406 49.980469 L 287.316406 -0.0195312 L 337.316406 49.980469 L 287.316406 99.980469 Z M 237.316406 49.980469 " clip-rule="nonzero"/></clipPath></defs><g clip-path="url(#fae959e8ec)"><g clip-path="url(#a93d0d4068)"><path fill="#050a30" d="M 37.316406 49.980469 L 87.316406 -0.0195312 L 137.316406 49.980469 L 87.316406 99.980469 Z M 37.316406 49.980469 " fill-opacity="1" fill-rule="nonzero"/></g></g><g clip-path="url(#138ca7f3af)"><g clip-path="url(#996ef6f5b0)"><path fill="#914bc4" d="M 87.316406 99.980469 L 137.316406 49.980469 L 187.316406 99.980469 L 137.316406 149.980469 Z M 87.316406 99.980469 " fill-opacity="1" fill-rule="nonzero"/></g></g><g clip-path="url(#0e5beb84cd)"><g clip-path="url(#a281129d22)"><path fill="#11a5d6" d="M 187.316406 99.980469 L 237.316406 49.980469 L 287.316406 99.980469 L 237.316406 149.980469 Z M 187.316406 99.980469 " fill-opacity="1" fill-rule="nonzero"/></g></g><g clip-path="url(#382688e29e)"><g clip-path="url(#4208076823)"><path fill="#0e8cb6" d="M 137.308594 100 L 237.308594 100 L 237.308594 150 L 137.308594 150 Z M 137.308594 100 " fill-opacity="1" fill-rule="nonzero"/></g></g><g clip-path="url(#62e37fac2f)"><g clip-path="url(#18e571e920)"><path fill="#6a0dad" d="M 137.316406 49.980469 L 187.316406 -0.0195312 L 237.316406 49.980469 L 187.316406 99.980469 Z M 137.316406 49.980469 " fill-opacity="1" fill-rule="nonzero"/></g></g><g clip-path="url(#c2c93b5f54)"><g clip-path="url(#8fbabc31e5)"><path fill="#00bfff" d="M 237.316406 49.980469 L 287.316406 -0.0195312 L 337.316406 49.980469 L 287.316406 99.980469 Z M 237.316406 49.980469 " fill-opacity="1" fill-rule="nonzero"/></g></g></svg>